<svg xmlns="http://www.w3.org/2000/svg" width="14.763" height="15.747" viewBox="0 0 14.763 15.747">
    <defs>
        <style>
            .cls-1{opacity:.5}
        </style>
    </defs>
    <path id="calendar" d="M7.492 7.833H9.46V9.8H7.492zm2.953 0h1.968V9.8h-1.969zm2.953 0h1.968V9.8H13.4zm-8.859 5.906h1.969v1.968H4.539zm2.953 0H9.46v1.968H7.492zm2.953 0h1.968v1.968h-1.969zm-2.953-2.953H9.46v1.968H7.492zm2.953 0h1.968v1.968h-1.969zm2.953 0h1.968v1.968H13.4zm-8.858 0h1.968v1.968H4.539zm10.825-8.858v.984H13.4v-.984H6.508v.984H4.539v-.984H2.571v15.747h14.763V1.928h-1.969zm.984 14.763H3.555V5.865H16.35z" class="cls-1" transform="translate(-2.571 -1.928)"/>
</svg>
